<?xml version="1.0" encoding="utf-8"?>
<!-- Generator: Adobe Illustrator 16.0.0, SVG Export Plug-In . SVG Version: 6.00 Build 0)  -->
<!DOCTYPE svg PUBLIC "-//W3C//DTD SVG 1.1//EN" "http://www.w3.org/Graphics/SVG/1.1/DTD/svg11.dtd">
<svg version="1.1" id="Layer_1" xmlns="http://www.w3.org/2000/svg" xmlns:xlink="http://www.w3.org/1999/xlink" x="0px" y="0px"
	 width="auto" height="60px" viewBox="0 0 400 400" enable-background="new 0 0 400 400" xml:space="preserve">
<g>
	<title>Layer 1</title>
	<g id="layer1">
		<g id="text11467">
			<path id="path5127" fill="#FFFFFF" stroke="#FFFFFF" stroke-miterlimit="10" d="M167.046,44.991l-5.611,40.608l-5.12,6.189
				l-0.947,0.86l-2.297,2.647l-2.121,3.051l-1.964,3.402l-1.806,3.752l-1.578,4.05l-1.403,4.348l-1.174,4.594l-0.912,4.857
				l-0.702,5.05l-0.403,5.26l-0.158,5.383l0.158,5.365l0.403,5.26l0.702,5.05l0.912,4.857l1.174,4.594l1.403,4.348l1.578,4.051
				l1.806,3.769l1.964,3.384l2.121,3.051l2.297,2.648l2.42,2.209l2.56,1.789l1.297,0.701l1.351,0.596l1.385,0.474l1.367,0.333
				l1.403,0.193l1.438,0.07l1.42-0.07l1.403-0.193l1.385-0.333l1.368-0.474l1.35-0.596l1.315-0.701l2.542-1.789l2.42-2.209
				l2.297-2.648l2.121-3.051l1.999-3.384l1.771-3.769l1.596-4.051l1.402-4.348l1.158-4.594l0.929-4.857l0.684-5.05l0.333-4.208
				l-0.438,0.07c0.741-15.044-1-27.985-7.47-43.448l-2.823-4.98l-1.262-1.806l-2.297-2.648l-2.42-2.209l-2.542-1.788l-1.315-0.702
				l-1.017-0.455l-2.209-4.594L167.046,44.991z M234.376,48.059l-8.469,42.958l-1.298,0.701l-2.56,1.789l-2.42,2.209l-2.297,2.648
				l-1.245,1.805l-2.84,4.98c-4.877,13.953-7.844,28.329-7.471,43.449l-0.438-0.07l0.333,4.208l0.685,5.05l0.929,4.857l1.175,4.593
				l1.402,4.349l1.578,4.05l1.789,3.771l1.98,3.384l2.122,3.051l2.297,2.647l2.42,2.21l2.56,1.788l1.298,0.701l1.35,0.597
				l1.368,0.473l1.385,0.333l1.403,0.193l1.42,0.07l1.438-0.07l1.401-0.193l1.386-0.333l1.367-0.473l1.35-0.597l1.299-0.701
				l2.56-1.788l2.419-2.21l2.297-2.647l2.123-3.051l1.963-3.384l1.807-3.771l1.578-4.05l1.402-4.349l1.174-4.593l0.931-4.857
				l0.683-5.05l0.404-5.26l0.156-5.383l-0.156-5.366l-0.404-5.26l-0.683-5.049l-0.931-4.857l-1.174-4.594l-1.402-4.349l-1.578-4.05
				l-1.807-3.752l-1.963-3.402l-2.123-3.05l-2.297-2.648l-0.945-0.859l-5.121-6.19L234.376,48.059L234.376,48.059z M94.456,122.963
				l-0.07,0.036h-0.087l-0.07,0.017h-0.07H94h-0.158l-0.158,0.035l-0.141,0.018l-0.315,0.052l-0.07,0.018l-0.105,0.052l-0.158,0.053
				l-0.141,0.035l-0.158,0.053l-0.158,0.07l-0.158,0.087l-0.281,0.123l-0.14,0.105l-0.14,0.106l-0.281,0.157l-0.579,0.421
				l-0.315,0.281l-0.28,0.263l-0.526,0.543l-1.052,1.35l-1.017,1.614l-0.912,1.841l-0.876,2.086l-0.754,2.262l-0.719,2.472
				l-1.105,5.453l-0.701,6.067l-0.263,6.435l0.263,6.452l0.701,6.067l1.105,5.453l0.719,2.472l0.754,2.262l0.876,2.087l0.228,0.456
				l-0.035,0.245l-0.088,3.612l0.14,3.77l0.421,3.892l0.684,4.068l0.965,4.103l1.227,4.208l1.508,4.243l1.789,4.226l2.017,4.139
				l2.191,3.91l2.314,3.664l2.473,3.401l2.56,3.14l2.647,2.84l2.735,2.543l2.753,2.244l2.771,1.875l2.787,1.526l2.753,1.192
				l2.735,0.789l2.666,0.421l2.612-0.035l1.245-0.158l1.227-0.263l1.193-0.387l1.174-0.49l1.123-0.596l1.052-0.701l0.999-0.807
				l0.929-0.895l1.666-2.018l1.42-2.367l1.158-2.646l0.911-2.945l0.649-3.191l0.368-3.419l0.106-3.612l-0.141-3.77l-0.421-3.893
				l-0.683-4.068l-0.965-4.103l-1.227-4.208l-1.508-4.244l-1.788-4.225l-2.017-4.138l-2.157-3.91l-2.349-3.665l-2.455-3.401
				l-2.577-3.139l-2.63-2.84l-2.718-2.543l-2.753-2.209l-2.788-1.911l-2.788-1.526l-2.77-1.192l-2.735-0.789l-2.683-0.421
				l-2.577,0.035l-1.263,0.158l-1.227,0.263l-0.877,0.281l-0.017-0.088l-1.192-3.296l-1.105-3.455l-0.912-3.612l-0.754-3.769
				l-0.579-3.805l-0.333-3.735l-0.158-3.612v-3.524l0.228-3.367l0.421-3.208l0.105-0.491l0.088-0.491l0.158-0.929h-0.018
				l-0.035-0.036h-0.018h-0.035h-0.07H94.456L94.456,122.963z M303.529,123.016l-0.035,0.035h-0.018l0.158,0.929l0.088,0.491
				l0.105,0.491l0.421,3.209l0.228,3.367v3.524l-0.158,3.612l-0.332,3.735l-0.579,3.804l-0.755,3.77l-0.911,3.612l-1.104,3.454
				l-1.193,3.297l-0.016,0.087l-0.878-0.28l-1.227-0.263l-1.263-0.158l-2.578-0.035l-2.683,0.421l-2.735,0.789l-2.77,1.192
				l-2.788,1.525l-2.788,1.912l-2.753,2.209l-2.718,2.542l-2.63,2.841l-2.577,3.138l-2.455,3.402l-2.35,3.664l-2.156,3.91
				l-2.016,4.138l-1.789,4.226l-1.508,4.243l-1.228,4.208l-0.964,4.104l-0.684,4.068l-0.422,3.893l-0.14,3.77l0.104,3.611
				l0.369,3.42l0.648,3.191l0.911,2.945l1.157,2.647l1.42,2.366l1.666,2.017l0.93,0.896l0.999,0.806l1.052,0.702l1.123,0.596
				l1.174,0.491l1.193,0.385l1.227,0.263l1.245,0.158l2.613,0.035l2.665-0.42l2.734-0.789l2.754-1.193l2.787-1.524l2.771-1.876
				l2.753-2.245l2.734-2.542l2.648-2.841l2.561-3.138l2.472-3.402l2.313-3.664l2.192-3.91l2.017-4.139l1.788-4.226l1.509-4.243
				l1.227-4.208l0.965-4.103l0.684-4.068l0.421-3.893l0.14-3.769l-0.087-3.612l-0.035-0.246l0.229-0.456l0.876-2.086l0.755-2.262
				l0.718-2.472l1.105-5.453l0.7-6.067l0.264-6.452l-0.264-6.435l-0.7-6.067l-1.105-5.453l-0.718-2.472l-0.755-2.262l-0.876-2.087
				l-0.912-1.841l-1.018-1.613l-1.052-1.35l-0.525-0.544l-0.281-0.263l-0.315-0.28l-0.579-0.421l-0.279-0.158l-0.141-0.105
				l-0.141-0.105l-0.28-0.123l-0.157-0.088l-0.158-0.07l-0.158-0.052l-0.141-0.035l-0.158-0.053l-0.104-0.053l-0.069-0.017
				l-0.316-0.053l-0.141-0.017l-0.158-0.035h-0.157h-0.158h-0.069l-0.07-0.018h-0.088l-0.07-0.035h-0.053h-0.07h-0.035H303.529
				L303.529,123.016L303.529,123.016z M197.818,211.632l-3.682,0.21l-3.56,0.563l-3.454,0.945l-3.314,1.299l-3.138,1.612
				l-2.981,1.895c-9.714,10.549-12.701,21.099-17.516,31.647l-2.069,2.928l-2.332,2.701l-2.578,2.473l-2.753,2.209l-2.98,1.894
				l-3.139,1.613c-11.441,2.876-18.632,7.169-24.863,11.782l-2.577,2.473l-2.332,2.7l-2.052,2.946l-2.77,5.295l-0.561,1.209
				l-1.21,3.508l-0.877,3.664l-0.561,3.787l-0.175,3.91l0.175,3.893l0.561,3.805l0.877,3.664l1.21,3.508l1.508,3.331l1.823,3.173
				l2.052,2.928l2.332,2.701l2.577,2.473l2.753,2.209l2.981,1.911l3.138,1.596l3.314,1.315c6.521,3.33,12.169,3.394,19.27,0.613
				l0.035-0.053l2.069-0.561l3.314-1.315l3.138-1.596l2.998-1.911c18.088-11.653,38.071-18.688,69.224,1.508l2.98,1.911
				c9.934,6.629,20.398,6.121,31.157,1.612l3.121-1.612l2.999-1.911l2.753-2.21l2.577-2.472l2.314-2.7l2.068-2.929l1.807-3.174
				l1.508-3.33l1.228-3.508l0.858-3.664l0.562-3.805l0.192-3.893l-0.192-3.91l-0.562-3.787l-0.858-3.665l-1.228-3.507l-1.508-3.331
				l-1.807-3.175l-2.068-2.944l-2.314-2.701l-2.577-2.472l-2.753-2.209l-2.999-1.895l-11.345-3.296l-3.313-1.315l-3.14-1.612
				l-2.979-1.894l-2.753-2.209l-2.576-2.473l-2.332-2.701l-2.053-2.945l-1.822-3.155l-8.979-22.724l-2.069-2.946l-2.313-2.7
				l-2.578-2.473l-2.754-2.209l-2.979-1.894l-3.139-1.612l-3.313-1.299l-3.455-0.947l-3.576-0.561L197.818,211.632L197.818,211.632z
				"/>
		</g>
	</g>
</g>
</svg>
