<?xml version="1.0" encoding="utf-8"?>
<!-- Generator: Adobe Illustrator 16.0.0, SVG Export Plug-In . SVG Version: 6.00 Build 0)  -->
<!DOCTYPE svg PUBLIC "-//W3C//DTD SVG 1.1//EN" "http://www.w3.org/Graphics/SVG/1.1/DTD/svg11.dtd">
<svg version="1.1" id="Layer_1" xmlns="http://www.w3.org/2000/svg" xmlns:xlink="http://www.w3.org/1999/xlink" x="0px" y="0px"
	 width="auto" height="60px" viewBox="0 0 50 50" style="enable-background:new 0 0 50 50;" xml:space="preserve">
<g>
	<path style="fill:none" d="M11.955,2.974c1.469,0.508,2.75-0.183,4.16-1.102c2.004-1.306,4.326-1.976,6.77-1.716
		c2.696,0.288,5.712-0.965,8.048,0.55c4.287,2.78,9.313,1.647,13.77,3.26c1.177,0.426,2.215,0.988,3.222,1.732
		c1.812,1.34,2.61,2.784,1.813,5.176c-1.029,3.085-1.441,6.405-4.009,8.758c-0.661,0.606-0.721,1.393-0.688,2.19
		c0.258,6.184-3.67,10.032-7.717,13.736c-0.985,0.9-1.819,1.691-2.415,2.959c-2.06,4.386-5.2,7.926-9.027,10.875
		c-0.752,0.579-1.188,0.373-1.813-0.115C20.194,46.249,17.018,42.65,15,38.114c-0.37-0.83-0.716-1.581-1.531-2.056
		c-3.5-2.038-5.287-5.568-7.493-8.732c-0.05-0.072-0.116-0.158-0.115-0.236c0.111-6.298-4.797-10.901-5.658-16.919
		c-0.252-1.76,0.07-2.815,1.282-3.892C4.002,4.043,7.923,2.742,11.955,2.974z"/>
	<path style="fill:#FFFFFF;stroke:#323232;stroke-miterlimit:10;" d="M32.479,33.847c-1.429,3.642-3.369,6.932-6.18,9.706
		c-0.989,0.976-1.533,0.976-2.522,0c-2.811-2.774-4.751-6.064-6.181-9.706c-1.046-1.645-0.858-3.55-0.906-5.335
		c-0.045-1.647,0.855-2.842,2.794-2.649c2.174,0.593,2.015,2.41,2.03,4.068c0.022,2.409,0.116,4.758,1.777,6.733
		c1.484,1.766,1.971,1.777,3.45,0.054c1.683-1.96,1.801-4.304,1.821-6.717c0.014-1.648-0.187-3.476,1.973-4.125
		c1.949-0.232,2.878,0.94,2.849,2.608C33.352,30.28,33.523,32.191,32.479,33.847z"/>
	<path style="fill:#FFFFFF;stroke:#323232;stroke-miterlimit:10;" d="M28.188,12.769c-1.184-0.108-2.081-0.824-2.11-1.911
		c-0.024-0.909,1.082-1.235,1.877-1.608c3.278-1.54,6.72-2.506,10.319-2.821c2.713-0.238,5.852,0.134,7.21,2.258
		c1.229,1.922-0.769,4.563-1.493,6.842c-0.256,0.806-0.734,1.886-1.685,1.775c-0.924-0.109-0.994-1.322-1.31-2.099
		c-0.471-1.166,0.235-2.236,0.503-3.324c0.325-1.325-0.032-1.962-1.441-2.11c-2.281-0.239-4.502-0.123-6.668,0.675
		C31.816,11.585,30.188,12.599,28.188,12.769z"/>
	<path style="fill:#FFFFFF;stroke:#323232;stroke-miterlimit:10;" d="M16.689,10.448c-2.001-0.699-4.073-1.021-6.174-0.881
		c-1.833,0.122-2.825,0.959-1.862,2.954c0.152,0.315,0.336,0.631,0.404,0.968c0.308,1.507-0.255,3.232-1.313,3.679
		c-1.062,0.449-1.549-1.348-1.98-2.353c-0.412-0.962-0.627-2.011-0.905-3.029c-0.926-3.409-0.87-3.822,2.584-4.751
		c6.083-1.637,11.467,0.53,16.782,3.399c-0.731,0.919-1.265,1.592-1.801,2.265C20.072,13.082,18.48,11.507,16.689,10.448z"/>
	<path style="fill:#FFFFFF;stroke:#323232;stroke-miterlimit:10;" d="M35.093,11.07c1.706-0.862,3.255-1.352,4.212,1.064
		c2.102,5.306,3.234,10.61-0.245,15.758c-1.309,1.936-3.005,3.606-4.524,5.398c-1.529,0.504-1.803-0.3-1.71-1.597
		c0.116-1.597,1.059-2.753,1.95-3.944c2.389-3.188,3.31-6.721,2.501-10.663c-0.322-1.349-0.898-2.576-1.668-3.732
		C35.161,12.682,34.408,12.023,35.093,11.07z"/>
	<path style="fill:#FFFFFF;stroke:#323232;stroke-miterlimit:10;" d="M14.986,11.073c-0.986,1.756-1.973,3.512-2.959,5.268
		c-0.594,4.886,1.161,8.989,4.188,12.661c0.708,0.857,1.002,1.886,1.066,2.938c0.069,1.152-0.434,1.842-1.737,1.352
		c-2.019-2.491-4.455-4.614-5.739-7.726c-2.072-5.018-0.758-9.6,1.375-14.114C12.143,9.412,13.651,10.584,14.986,11.073z"/>
	<path style="fill:#FFFFFF;stroke:#323232;stroke-miterlimit:10;" d="M19.246,22.2c-1.267-1.672-0.897-3.93,1.069-6.286
		c0.659-0.79,1.379-1.528,2.071-2.291c1.77-2.429,3.538-2.424,5.306,0.001c1.092,1.561,2.77,2.652,3.372,4.631
		c0.379,1.243,0.498,2.34-0.195,3.459c-1.32,1.53-2.256,0.83-2.983-0.573c-0.757-1.459-1.213-3.751-2.833-3.77
		c-1.635-0.019-2.125,2.254-2.838,3.731c-0.55,1.14-1.313,1.879-2.695,1.35C19.427,22.37,19.336,22.284,19.246,22.2z"/>
	<path style="fill:#FFFFFF;stroke:#323232;stroke-miterlimit:10;" d="M17.066,6.264c4.064-3.278,12.805-3.16,15.975,0.132
		C27.706,6.837,22.372,6.85,17.066,6.264z"/>
	<path style="fill:#FFFFFF;stroke:#323232;stroke-miterlimit:10;" d="M30.315,25.872c-3.518,0.683-7.036,0.683-10.553,0
		c-2.053-1.067-4.417-1.44-6.285-2.925c-1.665-1.324-1.703-2.895-0.04-4.009c1.719,1.479,3.61,2.646,5.809,3.262l-0.056-0.07
		c3.883,0.611,7.765,0.606,11.647-0.001c2.244-0.495,4.08-1.741,5.804-3.191c1.663,1.117,1.624,2.685-0.041,4.009
		C34.731,24.432,32.368,24.805,30.315,25.872z"/>
	<path style="fill:#FFFFFF;stroke:#323232;stroke-miterlimit:10;" d="M24.944,32.722c0.979,0.596,2.878-0.438,2.969,1.206
		c0.064,1.149-1.145,2.2-2.757,2.237c-1.712,0.041-2.982-0.93-2.993-2.274C22.15,32.398,23.989,33.269,24.944,32.722z"/>
</g>
</svg>
