<svg version="1.1" id="Layer_1" xmlns="http://www.w3.org/2000/svg" xmlns:xlink="http://www.w3.org/1999/xlink" x="0px" y="0px"
	 width="auto" height="200px"  xml:space="preserve">
<g>
	<path style="fill-rule:evenodd;clip-rule:evenodd;fill:none;stroke:none;stroke-miterlimit:10;" d="M456.406,238.713
		c2.781,0.957,5.209-0.345,7.878-2.076c3.796-2.46,8.194-3.722,12.821-3.232c5.107,0.541,10.819-1.817,15.242,1.035
		c8.121,5.237,17.639,3.103,26.078,6.141c2.229,0.803,4.196,1.862,6.102,3.262c3.432,2.524,4.944,5.244,3.434,9.749
		c-1.949,5.811-2.731,12.063-7.594,16.495c-1.252,1.143-1.365,2.622-1.303,4.124c0.489,11.649-6.951,18.895-14.615,25.872
		c-1.867,1.697-3.445,3.185-4.574,5.574c-3.9,8.259-9.848,14.927-17.098,20.481c-1.424,1.091-2.25,0.704-3.432-0.216
		c-7.334-5.702-13.352-12.479-17.172-21.021c-0.7-1.564-1.357-2.978-2.9-3.872c-6.627-3.838-10.011-10.49-14.19-16.449
		c-0.095-0.135-0.22-0.297-0.217-0.443c0.21-11.864-9.086-20.533-10.716-31.869c-0.477-3.316,0.133-5.303,2.428-7.33
		C441.344,240.728,448.77,238.277,456.406,238.713z"/>
	<path style="fill-rule:evenodd;clip-rule:evenodd;fill:#FFFFFF;stroke:#333;stroke-miterlimit:10;" d="M495.278,296.864
		c-2.707,6.857-6.382,13.055-11.705,18.279c-1.873,1.837-2.903,1.837-4.776,0c-5.323-5.225-8.998-11.422-11.705-18.279
		c-1.982-3.099-1.625-6.687-1.717-10.05c-0.085-3.104,1.619-5.354,5.292-4.99c4.118,1.117,3.815,4.54,3.845,7.663
		c0.041,4.536,0.219,8.96,3.365,12.683c2.811,3.324,3.733,3.346,6.535,0.1c3.187-3.691,3.41-8.105,3.448-12.65
		c0.026-3.106-0.353-6.547,3.737-7.771c3.692-0.438,5.451,1.772,5.395,4.913C496.93,290.145,497.255,293.745,495.278,296.864z"/>
	<path style="fill-rule:evenodd;clip-rule:evenodd;fill:#FFFFFF;stroke:#333;stroke-miterlimit:10;" d="M487.149,257.162
		c-2.243-0.205-3.942-1.551-3.997-3.599c-0.047-1.711,2.049-2.326,3.554-3.029c6.211-2.9,12.728-4.72,19.544-5.313
		c5.139-0.448,11.084,0.253,13.656,4.253c2.328,3.621-1.457,8.595-2.829,12.888c-0.484,1.518-1.39,3.552-3.19,3.343
		c-1.75-0.204-1.883-2.489-2.479-3.953c-0.892-2.197,0.444-4.211,0.951-6.261c0.617-2.496-0.06-3.696-2.73-3.975
		c-4.32-0.451-8.526-0.232-12.627,1.271C494.021,254.932,490.938,256.842,487.149,257.162z"/>
	<path style="fill-rule:evenodd;clip-rule:evenodd;fill:#FFFFFF;stroke:#333;stroke-miterlimit:10;" d="M465.371,252.79
		c-3.79-1.316-7.713-1.922-11.693-1.658c-3.472,0.23-5.35,1.805-3.527,5.563c0.288,0.594,0.636,1.189,0.766,1.823
		c0.582,2.839-0.482,6.088-2.486,6.93c-2.012,0.845-2.934-2.54-3.75-4.432c-0.781-1.812-1.189-3.788-1.714-5.705
		c-1.755-6.421-1.649-7.199,4.894-8.949c11.52-3.083,21.718,0.999,31.784,6.401c-1.385,1.732-2.397,2.999-3.411,4.266
		C471.779,257.751,468.765,254.785,465.371,252.79z"/>
	<path style="fill-rule:evenodd;clip-rule:evenodd;fill:#FFFFFF;stroke:#333;stroke-miterlimit:10;" d="M500.227,253.963
		c3.231-1.623,6.164-2.546,7.977,2.004c3.98,9.993,6.125,19.984-0.465,29.68c-2.478,3.647-5.691,6.794-8.569,10.169
		c-2.896,0.95-3.414-0.566-3.237-3.008c0.219-3.006,2.004-5.186,3.693-7.428c4.522-6.005,6.268-12.66,4.737-20.084
		c-0.612-2.541-1.703-4.852-3.159-7.029C500.355,256.999,498.932,255.759,500.227,253.963z"/>
	<path style="fill-rule:evenodd;clip-rule:evenodd;fill:#FFFFFF;stroke:#333;stroke-miterlimit:10;" d="M462.146,253.968
		c-1.868,3.308-3.735,6.615-5.604,9.922c-1.125,9.203,2.198,16.932,7.931,23.848c1.34,1.615,1.897,3.551,2.018,5.531
		c0.132,2.172-0.822,3.47-3.289,2.547c-3.823-4.693-8.436-8.691-10.869-14.551c-3.925-9.451-1.436-18.082,2.605-26.585
		C456.762,250.84,459.619,253.048,462.146,253.968z"/>
	<path style="fill-rule:evenodd;clip-rule:evenodd;fill:#FFFFFF;stroke:#333;stroke-miterlimit:10;" d="M470.214,274.925
		c-2.4-3.149-1.698-7.401,2.024-11.84c1.248-1.488,2.613-2.879,3.924-4.314c3.351-4.575,6.699-4.566,10.049,0.001
		c2.068,2.94,5.246,4.996,6.387,8.722c0.717,2.342,0.942,4.407-0.369,6.516c-2.501,2.882-4.274,1.564-5.652-1.08
		c-1.432-2.749-2.297-7.065-5.365-7.1c-3.097-0.034-4.025,4.247-5.376,7.028c-1.042,2.148-2.485,3.538-5.105,2.543
		C470.557,275.245,470.385,275.085,470.214,274.925z"/>
	<path style="fill-rule:evenodd;clip-rule:evenodd;fill:#FFFFFF;stroke:#333;stroke-miterlimit:10;" d="M466.086,244.91
		c7.697-6.174,24.252-5.952,30.254,0.248C486.237,245.99,476.134,246.013,466.086,244.91z"/>
	<path style="fill-rule:evenodd;clip-rule:evenodd;fill:#FFFFFF;stroke:#333;stroke-miterlimit:10;" d="M491.18,281.842
		c-6.663,1.285-13.326,1.285-19.988,0c-3.887-2.01-8.365-2.712-11.903-5.51c-3.152-2.494-3.225-5.451-0.075-7.55
		c3.256,2.785,6.838,4.984,11.001,6.144l-0.106-0.132c7.354,1.152,14.705,1.142,22.059-0.002c4.25-0.932,7.727-3.28,10.993-6.011
		c3.149,2.104,3.075,5.057-0.078,7.552C499.543,279.13,495.065,279.832,491.18,281.842z"/>
	<path style="fill-rule:evenodd;clip-rule:evenodd;fill:#FFFFFF;stroke:#333;stroke-miterlimit:10;" d="M481.006,294.744
		c1.852,1.121,5.451-0.827,5.624,2.271c0.121,2.165-2.169,4.144-5.222,4.215c-3.244,0.075-5.648-1.753-5.67-4.284
		C475.715,294.135,479.197,295.773,481.006,294.744z"/>
</g>
</svg>
